HIERARCHY
ROOT hip
{
	OFFSET 0.000000 0.000000 0.000000 
	CHANNELS 6 Xposition Yposition Zposition Xrotation Zrotation Yrotation
	JOINT abdomen
	{
		OFFSET 0.000000 3.402643 0.000000 
		CHANNELS 3 Xrotation Zrotation Yrotation
		JOINT chest
		{
			OFFSET 0.000000 8.438565 -0.680529 
			CHANNELS 3 Xrotation Zrotation Yrotation
			JOINT neck
			{
				OFFSET 0.000000 10.207942 -0.272212 
				CHANNELS 3 Xrotation Zrotation Yrotation
				JOINT head
				{
					OFFSET 0.000000 3.130431 0.000000 
					CHANNELS 3 Xrotation Zrotation Yrotation
					End Site
					{
						OFFSET 0.000000 3.130435 0.000000 
					}
				}
			}
			JOINT lCollar
			{
				OFFSET 3.470700 6.669187 -0.816635 
				CHANNELS 3 Yrotation Zrotation Xrotation
				JOINT lShldr
				{
					OFFSET 3.198488 0.000000 0.000000 
					CHANNELS 3 Zrotation Yrotation Xrotation
					JOINT lForeArm
					{
						OFFSET 10.139888 0.000000 0.000000 
						CHANNELS 3 Yrotation Zrotation Xrotation
						JOINT lHand
						{
							OFFSET 8.370511 0.000000 0.000000 
							CHANNELS 3 Zrotation Yrotation Xrotation
							End Site
							{
								OFFSET 4.083176 0.000000 0.000000 
							}
						}
					}
				}
			}
			JOINT rCollar
			{
				OFFSET -3.470700 6.669187 -0.816635 
				CHANNELS 3 Yrotation Zrotation Xrotation
				JOINT rShldr
				{
					OFFSET -3.198488 0.000000 0.000000 
					CHANNELS 3 Zrotation Yrotation Xrotation
					JOINT rForeArm
					{
						OFFSET -10.139888 0.000000 0.000000 
						CHANNELS 3 Yrotation Zrotation Xrotation
						JOINT rHand
						{
							OFFSET -8.370511 0.000000 0.000000 
							CHANNELS 3 Zrotation Yrotation Xrotation
							End Site
							{
								OFFSET -4.083176 0.000000 0.000000 
							}
						}
					}
				}
			}
		}
	}
	JOINT lThigh
	{
		OFFSET 5.308129 -1.633274 1.361059 
		CHANNELS 3 Xrotation Zrotation Yrotation
		JOINT lShin
		{
			OFFSET -2.041588 -20.007561 0.000000 
			CHANNELS 3 Xrotation Zrotation Yrotation
			JOINT lFoot
			{
				OFFSET 0.000000 -19.190928 -1.224953 
				CHANNELS 3 Xrotation Yrotation Zrotation
				End Site
				{
					OFFSET 0.000000 -2.449906 4.627600 
				}
			}
		}
	}
	JOINT rThigh
	{
		OFFSET -5.308129 -1.633274 1.361059 
		CHANNELS 3 Xrotation Zrotation Yrotation
		JOINT rShin
		{
			OFFSET 2.041588 -20.007561 0.000000 
			CHANNELS 3 Xrotation Zrotation Yrotation
			JOINT rFoot
			{
				OFFSET 0.000000 -19.190928 -1.224953 
				CHANNELS 3 Xrotation Yrotation Zrotation
				End Site
				{
					OFFSET 0.000000 -2.449906 4.627600 
				}
			}
		}
	}
}
MOTION
Frames: 8
Frame Time: 0.033333
-45.160591 52.360077 62.335255 2.812500 1.386719 -29.111094 24.414063 -8.115233 -4.414062 -22.695313 14.140626 5.986328 51.552734 8.066406 2.608792 -71.455078 -2.392578 -12.617596 1.992188 -2.001953 0.000341 -72.587891 27.812502 -12.886067 -133.769531 1.943359 -2.236660 -67.275391 6.132812 -16.668877 -2.001953 1.992188 0.000000 96.250000 -26.005857 -7.445686 53.251953 1.533203 -1.923828 5.937500 -52.783199 2.744141 1.862197 -2.115895 -2.084905 9.889651 -6.267879 -1.446944 -6.822418 11.011942 -0.290586 -13.954660 -12.302793 -33.129135 22.523800 4.989035 2.133222 -1.506447 -19.134335 -6.277570 
-45.991783 52.232002 63.284019 3.164063 1.748047 -27.675482 24.248045 -8.271484 -4.492188 -22.509766 14.140625 6.025391 51.552734 8.066406 2.608792 -71.767578 -2.041015 -13.428082 1.992188 -2.001953 0.000341 -72.822266 27.470703 -13.632812 -133.427734 1.943359 -2.480800 -67.578125 6.386719 -16.434462 -2.001953 1.992188 0.000000 95.820313 -25.859377 -6.107775 53.076172 1.523437 -1.923828 6.845703 -52.392578 2.519531 2.792926 -1.836014 -3.186113 10.067575 -5.859176 -1.386169 -7.835777 10.505181 -1.177256 -15.173104 -11.778712 -32.463566 18.314573 5.349656 1.745266 -0.322008 -16.797525 -4.981281 
-46.897976 52.118999 64.200745 3.496094 2.089844 -26.415655 24.257811 -8.681641 -4.492188 -22.148439 13.945313 6.083984 51.552734 8.066406 2.608792 -72.099617 -1.845703 -14.169922 1.992188 -2.001953 0.000341 -72.929688 27.265625 -14.028728 -133.427734 1.943359 -2.480800 -68.046875 6.259767 -16.258698 -2.001953 1.992188 0.000000 94.873047 -25.419922 -4.466788 53.076172 1.523437 -1.923828 6.982421 -52.226559 2.490234 3.497425 -1.413189 -4.585509 10.259734 -5.838391 -1.402191 -8.806390 10.153390 -1.299183 -16.677324 -10.942067 -30.859529 13.364248 5.486249 1.411646 3.371049 -14.533784 -3.338660 
-47.870815 51.953274 65.091415 3.867188 2.617188 -25.478069 24.062500 -9.169922 -4.327728 -21.796875 13.935548 6.181641 51.552734 8.066406 2.608792 -72.431641 -1.630859 -15.292968 1.992188 -2.001953 0.000341 -72.958984 27.265625 -14.077558 -133.427734 1.943359 -2.480800 -68.437500 5.888671 -15.829076 -2.001953 1.992188 0.000000 94.052734 -24.726566 -3.090022 53.251953 1.533203 -1.923828 6.445313 -52.041016 2.941519 4.210391 -1.072458 -5.822695 10.959676 -6.230132 -1.573214 -9.609678 9.941935 -1.231958 -17.245052 -9.549117 -30.987400 7.890150 5.614851 0.682438 6.330385 -12.907710 -2.505679 
-48.896641 51.780010 65.965080 4.218750 3.134766 -24.550245 23.720703 -9.755860 -4.375000 -21.455076 13.574219 6.213229 51.552734 8.066406 2.608792 -72.744141 -1.269531 -16.269749 1.992188 -2.001953 0.000341 -72.822266 27.470703 -13.632812 -133.427734 1.943359 -2.480800 -68.808594 5.234375 -14.921871 -2.001953 1.992188 0.000000 93.154297 -23.886721 -1.693408 52.919922 1.337891 -2.021712 5.917969 -52.080078 2.880860 5.054875 -0.556703 -6.332341 11.139925 -6.210358 -1.548946 -10.445897 9.385484 -1.650510 -16.490824 -7.474571 -33.169292 0.849515 5.690341 0.108122 8.923809 -11.283775 -3.919109 
-49.956268 51.584129 66.829842 4.570313 3.496094 -23.798231 23.320311 -10.488280 -4.111328 -21.093752 13.378907 6.269532 51.552734 8.066406 2.608792 -73.095703 -1.083984 -17.216980 1.992188 -2.001953 0.000341 -72.734375 27.597654 -13.339845 -133.603516 1.953125 -2.441739 -69.033203 4.707031 -14.648437 -2.001953 1.992188 0.000000 92.939453 -23.154297 -0.902278 52.744137 1.337891 -2.021485 5.439453 -51.376953 3.417969 5.966833 0.107380 -7.020741 11.328671 -6.191214 -1.575334 -10.705235 8.851232 -1.458703 -15.341523 -4.384739 -36.331268 -5.286717 5.696457 -0.361892 11.528233 -9.666115 -6.151336 
-51.043789 51.380733 67.675385 4.931641 4.023438 -23.378220 22.968750 -11.152344 -4.003907 -20.556639 13.193360 6.545197 51.552734 8.066406 2.608792 -73.232422 -0.751953 -18.222784 1.992188 -2.001953 0.000341 -72.802734 27.480469 -13.589245 -133.603516 1.953125 -2.441739 -69.082031 4.472656 -14.852752 -2.001953 1.992188 0.000000 92.724609 -22.705078 -0.751953 52.900391 1.464844 -1.904547 5.449219 -51.376949 3.390810 7.231998 0.526385 -7.025316 11.320760 -6.207880 -1.536789 -11.025242 8.367698 -1.414940 -14.382361 -1.452195 -39.776981 -13.237102 5.427674 -1.137054 13.384703 -7.351416 -7.725646 
-52.144260 51.147198 68.451958 5.107422 4.199219 -23.173115 22.587891 -11.669922 -3.818359 -20.195314 13.007813 6.601563 51.552734 8.066406 2.608792 -73.349609 -0.253906 -18.955124 1.992188 -2.001953 0.000341 -72.880859 27.382814 -13.804099 -133.603516 1.953125 -2.441739 -68.779297 4.589844 -15.028517 -2.001953 1.992188 0.000000 93.017578 -22.285156 -1.351359 52.744137 1.337891 -2.021485 5.000000 -50.898441 3.420156 8.099508 1.443487 -6.801139 11.679145 -6.201722 -1.578478 -10.938166 7.538626 -1.190175 -13.912657 0.286806 -41.464893 -16.943003 5.146401 -1.843421 13.376006 -5.551767 -8.164431 
